:version 1.10
:name ASF
:units
  mass 1
  length 1
  angle deg
:documentation
  ASF file generated by Kaydara
:root
  axis xyz
  order  tx ty tz rx ry rz
  position 0 0 0
  orientation 0 0 0
:bonedata
  begin
    id 1
    name RightUpLegDummy
    direction -0.718183 -0.695806 0.00816078
    length 4.904
    axis 0 0 0 xyz
  end
  begin
    id 2
    name RightUpLeg
    direction 3.53373e-006 -0.995788 0.0916898
    length 17.4976
    axis -3.49089 -0.000906625 0.000286804 xyz
    dof rx ry rz
  end
  begin
    id 3
    name RightLeg
    direction 0.00371092 -0.995096 -0.0988419
    length 16.5821
    axis 3.68512 0.0193738 -0.131023 xyz
    dof rx ry rz
  end
  begin
    id 4
    name RightFoot
    direction 0.00079151 -0.46099 0.887405
    length 3.77069
    axis 4.81691e-005 -0.120479 -0.188788 xyz
    dof rx ry rz
  end
  begin
    id 5
    name RightToes
    direction 0 0 0
    length 0
    axis 0 0 0 xyz
    dof rx ry rz
  end
  begin
    id 6
    name SpineDummy
    direction 8.3039e-015 1 4.57515e-016
    length 4.6813
    axis 0 0 0 xyz
  end
  begin
    id 7
    name Spine
    direction -3.15643e-008 0.999988 0.00495137
    length 10.1015
    axis -0.001389 0.000121418 2.40972e-006 xyz
    dof rx ry rz
  end
  begin
    id 8
    name Spine1
    direction 0 0 0
    length 0
    axis -0.001389 0.000121451 1.30017e-006 xyz
    dof rx ry rz
  end
  begin
    id 9
    name HEadDummy
    direction -1.99912e-008 0.999999 0.00127422
    length 3.43865
    axis -0.001389 0.000121451 1.30017e-006 xyz
  end
  begin
    id 10
    name HEad
    direction 0 0 0
    length 0
    axis 0 0 0 xyz
    dof rx ry rz
  end
  begin
    id 11
    name LeftShoulder1Dummy
    direction 0.998891 -0.0402509 -0.0244456
    length 3.5433
    axis -0.001389 0.000121451 1.30017e-006 xyz
  end
  begin
    id 12
    name LeftShoulder1
    direction 0.99951 -0.000327763 0.0313091
    length 4.05031
    axis -0.001389 0.000121451 1.30017e-006 xyz
    dof rx ry rz
  end
  begin
    id 13
    name LeftArm
    direction 0.998561 -0.00100056 -0.0536182
    length 10.3537
    axis -23.1894 0.134784 0.967509 xyz
    dof rx ry rz
  end
  begin
    id 14
    name LeftForeArm
    direction 0.998903 0.00866432 0.046012
    length 8.70632
    axis -9.91835 -0.06569 -0.177794 xyz
    dof rx ry rz
  end
  begin
    id 15
    name LeftHand
    direction 0 0 0
    length 0
    axis 0 0 0 xyz
    dof rx ry rz
  end
  begin
    id 16
    name RightShoulderDummy
    direction -0.998891 -0.0402509 -0.0244414
    length 3.5433
    axis -0.001389 0.000121451 1.30017e-006 xyz
  end
  begin
    id 17
    name RightShoulder
    direction -0.99951 -0.000327807 0.0313133
    length 4.05031
    axis 0.215806 0.000203643 -0.0068026 xyz
    dof rx ry rz
  end
  begin
    id 18
    name RightArm
    direction -0.998573 -0.000999564 -0.053403
    length 10.3947
    axis -23.2009 -0.134239 -0.964101 xyz
    dof rx ry rz
  end
  begin
    id 19
    name RightForeArm
    direction -0.998898 0.00868028 0.0461306
    length 8.68355
    axis -9.92322 0.0658061 0.178868 xyz
    dof rx ry rz
  end
  begin
    id 20
    name RightHand
    direction 0 0 0
    length 0
    axis 0 0 0 xyz
    dof rx ry rz
  end
  begin
    id 21
    name LeftUpLegDummy
    direction 0.718183 -0.695806 0.00816078
    length 4.904
    axis 0 0 0 xyz
  end
  begin
    id 22
    name LeftUpLeg
    direction -6.81752e-006 -0.995793 0.0916337
    length 17.4976
    axis -3.48766 0.00143442 -0.000524262 xyz
    dof rx ry rz
  end
  begin
    id 23
    name LeftLeg
    direction -0.00601358 -0.995091 -0.0987824
    length 16.5821
    axis 3.68178 -0.00654042 -0.000285133 xyz
    dof rx ry rz
  end
  begin
    id 24
    name LeftFoot
    direction -0.00417578 -0.460984 0.887399
    length 3.77069
    axis 1.87233e-006 4.66016e-005 -8.6538e-006 xyz
    dof rx ry rz
  end
  begin
    id 25
    name LeftToes
    direction 0 0 0
    length 0
    axis 0 0 0 xyz
    dof rx ry rz
  end
:hierarchy
  begin
    root RightUpLegDummy SpineDummy LeftUpLegDummy
    RightUpLegDummy RightUpLeg
    RightUpLeg RightLeg
    RightLeg RightFoot
    RightFoot RightToes
    SpineDummy Spine
    Spine Spine1
    Spine1 HEadDummy LeftShoulder1Dummy RightShoulderDummy
    HEadDummy HEad
    LeftShoulder1Dummy LeftShoulder1
    LeftShoulder1 LeftArm
    LeftArm LeftForeArm
    LeftForeArm LeftHand
    RightShoulderDummy RightShoulder
    RightShoulder RightArm
    RightArm RightForeArm
    RightForeArm RightHand
    LeftUpLegDummy LeftUpLeg
    LeftUpLeg LeftLeg
    LeftLeg LeftFoot
    LeftFoot LeftToes
  end

:SAMPLES-PER-SECOND 30
:FULLY-SPECIFIED
:DEGREES
1
root  13.0098 40.7179 12.0406 138.082 87.2204 140.968
RightUpLeg  2.32003 -11.6153 -12.1544
RightLeg  6.00394 -12.3941 2.53115
RightFoot  -0.188467 -0.407597 4.15866
RightToes  0.000481921 0.542163 -0.142578
Spine  -2.97657 0.0878924 2.74429
Spine1  20.0948 -0.0109464 0.215349
HEad  11.5871 0.641889 0.541378
LeftShoulder1  9.54883 -14.2283 -46.9919
LeftArm  -4.59655 2.49818 -28.7387
LeftForeArm  -175.715 -54.1377 -167.219
LeftHand  -0.25398 0.0180481 5.50724
RightShoulder  5.44796 9.49343 35.9368
RightArm  -1.17486 -3.25392 38.3942
RightForeArm  170.028 56.8803 164.7
RightHand  -1.98643 7.60525 -18.0326
LeftUpLeg  3.74583 6.84346 6.79112
LeftLeg  1.41266 13.6047 -3.51423
LeftFoot  1.29213 0.473548 -4.34847
LeftToes  1.06245e-005 4.65869e-005 -8.65517e-006
2
root  13.0184 40.727 12.0436 139.131 87.1837 141.941
RightUpLeg  2.39075 -11.5231 -12.086
RightLeg  5.73135 -12.565 2.52902
RightFoot  -0.104581 -0.422706 4.28642
RightToes  0.000481921 0.542163 -0.142578
Spine  -2.87005 -0.0139289 2.57133
Spine1  19.9738 -0.141669 0.279411
HEad  11.3732 0.523664 0.682982
LeftShoulder1  9.5232 -14.2069 -46.9208
LeftArm  -4.57123 2.70274 -28.799
LeftForeArm  -175.82 -54.2384 -167.164
LeftHand  -0.25398 0.0180481 5.50724
RightShoulder  5.47316 9.51669 36.0526
RightArm  -0.995071 -3.74543 38.2784
RightForeArm  169.869 56.9509 164.647
RightHand  -1.97474 7.52693 -18.0334
LeftUpLeg  3.81708 6.79744 6.77863
LeftLeg  1.08565 13.6045 -3.55474
LeftFoot  1.44045 0.479811 -4.36146
LeftToes  1.06245e-005 4.65869e-005 -8.65517e-006
3
root  13.0352 40.7445 12.0486 141.201 87.093 143.836
RightUpLeg  2.4913 -11.3894 -11.9765
RightLeg  5.22467 -12.8694 2.5592
RightFoot  0.0793518 -0.441138 4.41428
RightToes  0.000481921 0.542163 -0.142578
Spine  -2.8287 -0.211059 2.17973
Spine1  19.9465 -0.427316 0.49963
HEad  10.8642 0.529336 0.7855
LeftShoulder1  9.51909 -14.1933 -46.9369
LeftArm  -4.62198 3.01378 -28.74
LeftForeArm  -175.967 -54.3721 -167.091
LeftHand  -0.25398 0.0180481 5.50724
RightShoulder  5.52034 9.56598 36.2503
RightArm  -0.697178 -4.46368 38.0017
RightForeArm  169.76 57.1094 164.549
RightHand  -1.94028 7.44904 -17.8333
LeftUpLeg  3.91395 6.71283 6.75039
LeftLeg  0.464168 13.5939 -3.64727
LeftFoot  1.7349 0.491536 -4.38032
LeftToes  1.06245e-005 4.65869e-005 -8.65517e-006
4
root  13.0498 40.7586 12.0512 143.384 86.9822 145.787
RightUpLeg  2.47706 -11.3261 -11.8967
RightLeg  4.84212 -13.1336 2.62552
RightFoot  0.244965 -0.444539 4.38982
RightToes  0.000481921 0.542163 -0.142578
Spine  -2.90805 -0.385265 1.76904
Spine1  20.0354 -0.721804 0.814804
HEad  10.1511 0.810624 0.664107
LeftShoulder1  9.57408 -14.2216 -47.1369
LeftArm  -4.65328 3.21597 -28.5596
LeftForeArm  -175.972 -54.4778 -167.042
LeftHand  -0.25398 0.0180481 5.50724
RightShoulder  5.53213 9.56683 36.3355
RightArm  -0.412285 -5.02219 37.741
RightForeArm  170.002 57.2293 164.502
RightHand  -1.92259 7.55036 -17.5464
LeftUpLeg  3.88585 6.65342 6.72658
LeftLeg  -0.0306743 13.5448 -3.74238
LeftFoot  1.98042 0.499754 -4.38199
LeftToes  1.06245e-005 4.65869e-005 -8.65517e-006
5
root  13.0565 40.7632 12.0491 144.971 86.898 147.172
RightUpLeg  2.34201 -11.3422 -11.866
RightLeg  4.7467 -13.2735 2.68335
RightFoot  0.303719 -0.440987 4.29175
RightToes  0.000481921 0.542163 -0.142578
Spine  -2.93509 -0.47542 1.55007
Spine1  20.0466 -0.888595 1.01981
HEad  9.30598 1.19574 0.380285
LeftShoulder1  9.64668 -14.2754 -47.3551
LeftArm  -4.52845 3.24545 -28.4394
LeftForeArm  -175.796 -54.5567 -167.018
LeftHand  -0.25398 0.0180481 5.50724
RightShoulder  5.50637 9.51731 36.2996
RightArm  -0.182503 -5.39846 37.5738
RightForeArm  170.205 57.2125 164.528
RightHand  -1.93946 7.68292 -17.524
LeftUpLeg  3.71249 6.64491 6.71775
LeftLeg  -0.152209 13.4677 -3.78541
LeftFoot  2.05301 0.500777 -4.37046
LeftToes  1.06245e-005 4.65869e-005 -8.65517e-006
6
root  13.0583 40.7622 12.0444 145.532 86.8717 147.617
RightUpLeg  2.20388 -11.3708 -11.8633
RightLeg  4.80192 -13.2974 2.70115
RightFoot  0.280227 -0.443914 4.30188
RightToes  0.000481921 0.542163 -0.142578
Spine  -2.81636 -0.506364 1.5255
Spine1  19.927 -0.91252 1.00178
HEad  8.43046 1.45494 0.0978654
LeftShoulder1  9.67564 -14.3182 -47.3838
LeftArm  -4.29095 3.16026 -28.4749
LeftForeArm  -175.578 -54.6178 -167.006
LeftHand  -0.25398 0.0180481 5.50724
RightShoulder  5.51587 9.52924 36.3327
RightArm  -0.0498363 -5.6418 37.3857
RightForeArm  169.971 57.1211 164.56
RightHand  -1.94756 7.59054 -17.713
LeftUpLeg  3.522 6.65603 6.70983
LeftLeg  -0.0270175 13.4304 -3.77246
LeftFoot  2.00579 0.498933 -4.36771
LeftToes  1.06245e-005 4.65869e-005 -8.65517e-006
7
root  13.065 40.7593 12.0398 144.951 86.9161 146.991
RightUpLeg  2.14026 -11.3737 -11.8688
RightLeg  4.83162 -13.2306 2.6968
RightFoot  0.249114 -0.453755 4.42652
RightToes  0.000481921 0.542163 -0.142578
Spine  -2.67802 -0.506 1.52501
Spine1  19.817 -0.870856 0.899653
HEad  7.72369 1.5587 -0.108412
LeftShoulder1  9.67032 -14.3428 -47.2907
LeftArm  -4.0728 3.02565 -28.5676
LeftForeArm  -175.416 -54.6835 -166.987
LeftHand  -0.25398 0.0180481 5.50724
RightShoulder  5.58656 9.65325 36.4676
RightArm  -0.0441687 -5.68494 37.1601
RightForeArm  169.775 57.0958 164.558
RightHand  -1.91273 7.39587 -17.6588
LeftUpLeg  3.43862 6.65608 6.69459
LeftLeg  0.0874991 13.4891 -3.74616
LeftFoot  1.94496 0.498101 -4.37878
LeftToes  1.06245e-005 4.65869e-005 -8.65517e-006
8
root  13.0865 40.7576 12.0336 143.563 87.0271 145.599
RightUpLeg  2.14539 -11.3639 -11.8719
RightLeg  4.81407 -13.0982 2.69861
RightFoot  0.241068 -0.458738 4.48244
RightToes  0.000481921 0.542163 -0.142578
Spine  -2.68037 -0.466428 1.46593
Spine1  19.8244 -0.822512 0.895842
HEad  7.35333 1.58435 -0.22606
LeftShoulder1  9.68669 -14.3589 -47.3287
LeftArm  -3.91365 2.88141 -28.5805
LeftForeArm  -175.275 -54.7978 -166.943
LeftHand  -0.25398 0.0180481 5.50724
RightShoulder  5.64375 9.77931 36.4945
RightArm  -0.0817876 -5.46003 37.0855
RightForeArm  170.217 57.1837 164.546
RightHand  -1.86518 7.38582 -17.251
LeftUpLeg  3.48375 6.65538 6.69176
LeftLeg  0.110959 13.6201 -3.73756
LeftFoot  1.88428 0.497718 -4.39429
LeftToes  1.06245e-005 4.65869e-005 -8.65517e-006
9
root  13.1262 40.7574 12.0223 142.009 87.1736 144.059
RightUpLeg  2.19987 -11.343 -11.8644
RightLeg  4.77949 -12.9587 2.70074
RightFoot  0.244163 -0.454257 4.39766
RightToes  0.000481921 0.542163 -0.142578
Spine  -2.84243 -0.406117 1.4219
Spine1  19.9186 -0.781269 0.958891
HEad  7.26044 1.5747 -0.221063
LeftShoulder1  9.72548 -14.354 -47.5352
LeftArm  -3.78403 2.79765 -28.5132
LeftForeArm  -175.176 -54.9713 -166.868
LeftHand  -0.25398 0.0180481 5.50724
RightShoulder  5.63695 9.80868 36.3533
RightArm  -0.025513 -5.03246 37.2231
RightForeArm  170.916 57.3199 164.528
RightHand  -1.84409 7.50169 -16.9181
LeftUpLeg  3.60217 6.66881 6.71399
LeftLeg  0.109939 13.7562 -3.7371
LeftFoot  1.79313 0.49789 -4.41711
LeftToes  1.06245e-005 4.65869e-005 -8.65517e-006
10
root  13.1773 40.7573 12.0068 140.609 87.3105 142.666
RightUpLeg  2.27673 -11.2995 -11.842
RightLeg  4.72094 -12.8613 2.68188
RightFoot  0.242087 -0.450857 4.33544
RightToes  0.000481921 0.542163 -0.142578
Spine  -3.09219 -0.370345 1.40801
Spine1  20.0246 -0.756968 0.983181
HEad  7.2443 1.62131 -0.142959
LeftShoulder1  9.73546 -14.313 -47.6959
LeftArm  -3.67434 2.84347 -28.4556
LeftForeArm  -175.213 -55.143 -166.783
LeftHand  -0.25398 0.0180481 5.50724
RightShoulder  5.62161 9.79854 36.2724
RightArm  0.112239 -4.5242 37.3655
RightForeArm  171.147 57.4416 164.478
RightHand  -1.84681 7.50947 -16.9325
LeftUpLeg  3.71603 6.68068 6.73445
LeftLeg  0.129443 13.8719 -3.72369
LeftFoot  1.68691 0.498562 -4.45242
LeftToes  1.06245e-005 4.65869e-005 -8.65517e-006
11
root  13.2286 40.7566 11.9923 139.22 87.4129 141.256
RightUpLeg  2.33196 -11.2531 -11.8259
RightLeg  4.66322 -12.7863 2.64732
RightFoot  0.219692 -0.457021 4.42703
RightToes  0.000481921 0.542163 -0.142578
Spine  -3.35588 -0.346959 1.30619
Spine1  20.0877 -0.752034 1.03709
HEad  7.21722 1.82037 -0.153197
LeftShoulder1  9.71891 -14.271 -47.7279
LeftArm  -3.55891 2.98978 -28.4368
LeftForeArm  -175.345 -55.259 -166.717
LeftHand  -0.25398 0.0180481 5.50724
RightShoulder  5.64736 9.82776 36.3703
RightArm  0.17135 -4.04235 37.3796
RightForeArm  171.082 57.5308 164.422
RightHand  -1.85617 7.50572 -17.0196
LeftUpLeg  3.78045 6.67898 6.7297
LeftLeg  0.171902 13.9767 -3.70017
LeftFoot  1.59122 0.498069 -4.48036
LeftToes  1.06245e-005 4.65869e-005 -8.65517e-006
12
root  13.2757 40.7542 11.9811 138.098 87.4838 140.115
RightUpLeg  2.36761 -11.2353 -11.8301
RightLeg  4.66303 -12.7039 2.62365
RightFoot  0.17291 -0.465149 4.55397
RightToes  0.000481921 0.542163 -0.142578
Spine  -3.57675 -0.274677 1.10578
Spine1  20.0792 -0.726596 1.20206
HEad  7.22431 2.00775 -0.266774
LeftShoulder1  9.74386 -14.2967 -47.7821
LeftArm  -3.3894 3.13699 -28.4066
LeftForeArm  -175.424 -55.3474 -166.668
LeftHand  -0.25398 0.0180481 5.50724
RightShoulder  5.6689 9.84205 36.4833
RightArm  0.08286 -3.70212 37.381
RightForeArm  171.263 57.5683 164.416
RightHand  -1.87968 7.71717 -16.9636
LeftUpLeg  3.81467 6.6899 6.73026
LeftLeg  0.25868 14.0425 -3.68245
LeftFoot  1.48834 0.494159 -4.47438
LeftToes  1.06245e-005 4.65869e-005 -8.65517e-006
13
root  13.3225 40.7505 11.9707 138.059 87.5267 140.106
RightUpLeg  2.45254 -11.2355 -11.8371
RightLeg  4.69815 -12.6504 2.6193
RightFoot  0.126842 -0.464654 4.55143
RightToes  0.000481921 0.542163 -0.142578
Spine  -3.74396 -0.154114 1.00361
Spine1  20.0392 -0.630262 1.30817
HEad  7.26512 1.86262 -0.253036
LeftShoulder1  9.82786 -14.4037 -47.908
LeftArm  -3.20227 3.23481 -28.3346
LeftForeArm  -175.468 -55.4492 -166.615
LeftHand  -0.25398 0.0180481 5.50724
RightShoulder  5.64281 9.76747 36.5244
RightArm  -0.0414778 -3.564 37.4361
RightForeArm  171.356 57.5339 164.443
RightHand  -1.91715 7.91553 -17.0437
LeftUpLeg  3.86633 6.73862 6.77576
LeftLeg  0.401945 14.0219 -3.67215
LeftFoot  1.36663 0.486249 -4.44097
LeftToes  1.06245e-005 4.65869e-005 -8.65517e-006
